<?xml version="1.0" encoding="utf-8"?>
<!-- Generator: Adobe Illustrator 16.0.0, SVG Export Plug-In . SVG Version: 6.00 Build 0)  -->
<!DOCTYPE svg PUBLIC "-//W3C//DTD SVG 1.1//EN" "http://www.w3.org/Graphics/SVG/1.1/DTD/svg11.dtd">
<svg version="1.1" id="Layer_1" xmlns="http://www.w3.org/2000/svg" xmlns:xlink="http://www.w3.org/1999/xlink" x="0px" y="0px"
	 width="95.513px" height="92.054px" viewBox="0 0 95.513 92.054" enable-background="new 0 0 95.513 92.054" xml:space="preserve">
<g>
	<g>
		<path fill="#808285" d="M0,7.181c0,0,7.459,6.139,15.493,3.093c0.468,3.885-3.336,16.551-5.835,21.46
			c4.083,3.953,4.369,4.23,4.369,4.23s8.275-30.691,15.446-23.78c5.414,5.221-0.036,14.112-2.382,19.12
			c4.523,2.318,1.347,0.817,4.523,2.318c6.418-19.115,11.412-19.145,13.984-17.854c12.107,6.074-15.175,48.153-7.332,76.284
			c4.273-5.747-1.285,1.729,4.544-6.111c-2.032-11.301,2.978-33.22,6.877-43.416C65.246,1.869,38.55,9.444,35.462,14.275
			c2.096-2.544-1.933-17.48-15.505-4.946c1.804-5.986,0.09-0.599,2.814-8.939c-3.691-0.39,0,0-3.691-0.39
			c-3.983,7.219-6.518,8.615-17.92,5.067C0,7.181,1.159,5.067,0,7.181z"/>
	</g>
	<path fill="#808285" d="M95.513,45.225c0,0-9.534,6.033-11.714,2.225c-1.333-2.341,6.635-15.996-0.604-18.327
		c-7.237-2.329-11.494,16.32-11.494,16.32l-4.587-0.072c0,0,9.636-16.833,4.254-20.1c-6.326-3.844-12.005,11.299-12.005,11.299
		l-2.34-1.294c0,0,2.352-2.298,3.269-12.432c3.54-1.82,3.54-1.82,3.54-1.82s-0.278,1.191-1.049,5.917
		c1.624-8.257,13.857-8.271,13.176,1.018c3.231-5.5,20.947-1.943,12.209,15.965c-1.164,2.386,6.583-0.955,6.583-0.955"/>
</g>
</svg>
