<?xml version="1.0" encoding="utf-8"?>
<!-- Generator: Adobe Illustrator 16.0.0, SVG Export Plug-In . SVG Version: 6.00 Build 0)  -->
<!DOCTYPE svg PUBLIC "-//W3C//DTD SVG 1.1//EN" "http://www.w3.org/Graphics/SVG/1.1/DTD/svg11.dtd">
<svg version="1.1" id="Layer_1" xmlns="http://www.w3.org/2000/svg" xmlns:xlink="http://www.w3.org/1999/xlink" x="0px" y="0px"
	 width="1002.449px" height="273.135px" viewBox="0 0 1002.449 273.135" enable-background="new 0 0 1002.449 273.135"
	 xml:space="preserve">
<g>
	<g>
		<g>
			<path fill="#F4E5CF" d="M19.845,125.271l-3.562-3.563c0,0,16.468-80.195-8.604-114.219l13.774,8.13
				C21.454,15.62,35.033,31.211,19.845,125.271z"/>
			<path fill="#F4E5CF" d="M26.979,56.804c0,0,12.795-24.589,34.682-20.841c21.886,3.747,13.566,34.441,13.566,34.441
				s8.894-13.183,22.997-9.76c34.706,8.427-15.404,157.724,20.876,206.111l-6.629,1.011C73.418,223.423,125.28,73.959,96.887,65.819
				c-14.408-4.132-23.787,14.34-27.859,55.466l-6.267-1.386c0,0,18.807-74.729-0.593-79.684c-18.688-4.77-37.311,48.03-37.311,48.03
				 M37.276,51.555c0,0-13.655,13.91-11.2,17.883C28.529,73.404,34.743,55.924,37.276,51.555z"/>
		</g>
		<path fill="#F4E5CF" d="M183.275,138.159c-8.841-31.423,4.974-56.1,17.748-57.247c8.493-0.764,16.509,3.567,16.509,3.567
			l4.269-54.769l5.393,2.399c-15.832,163.403-4.943,175.136,14.873,186.851l-2.33,3.965c-27.906-11.509-27.169-71.479-27.169-71.479
			c-13.168,11.394-26.906-6.234-26.906-6.234c-23.785,24.463-32.452-3.836-32.452-3.836s-5.883,9.173-19.078,10.494
			c-33.117,3.32-10.441-56.275,8.41-55.508c24.549,1,14.992,28.828,14.736,40.018C166.482,163.266,183.275,138.159,183.275,138.159
			 M151.625,106.674c0,0-17.344-18.975-28.432,16.986c-7.625,24.722,10.304,23.365,10.304,23.365s11.339,1.226,18.022-10.655
			c1.083-1.926-1.552-6.387,0.808-14.128C154.467,115.232,154.632,110.61,151.625,106.674z M216.416,96.111
			c0,0-1.17-7.948-12.125-8.313c-10.956-0.362-17.555,17.276-18.196,27.47c-0.767,12.189-1.022,35.254,17.349,33.695
			c11.722-0.994,10.152-8.586,10.152-8.586L216.416,96.111z"/>
		<g>
			<g>
				<path fill="#F4E5CF" d="M414.474,133.292c-0.209-8.949,5.49-46.558,26.383-41.948c17.545,3.867-22.19,49.107-22.19,49.107
					s5.965,46.596,32.159-4.706c1.09-48.997,36.07-35.556,36.14-30.298c5.909,0.894-11.035,30.262,9.333,36.956
					c18.656,6.132,16.844-56.794,16.844-56.794l4.715-0.725c2.475,8.944,0.934,12.847,0.934,12.847s9.184-17.847,25.146-11.108
					c24.947,10.529-7.74,59.466,4.07,69.604c3.01,2.582,15.092,2.287,19.568-8.263c-0.527-32.61,9.932-40.813,19.121-42.587
					c9.191-1.774,11.832,3.588,11.832,3.588s6.863-81.57,4.461-85.428l7.268,0.982c-3.271,32.273-7.037,105.741-7.037,105.741
					c15.387,15.287,21.201,2.565,21.201,2.565s-5.771-52.482,13.963-47.975c25.248,5.768-2.801,52.688-2.801,52.688
					c41.582,9.108,34.762-37.05,31.789-43.114l3.246-1.452c14.469,18.507,31.977,9.812,40.773,1.644l2.799,4.311
					c-12.184,16.289-17.589,43.541-4.871,47.839c14.744,4.982,22.563-8.467,26.387-21.7c2.133-7.384,5.031-23.699,4.623-41.906
					l4.195-1.084c0.301,27.491-8.473,50.9,4.525,53.712c23.9,5.168,28.434-20.085,27.043-48.948l5.631,0.854
					c0,0,1.35,5.065-0.389,16.519c28.652-37.111,36.363-2.227,34.301,8.102c-2.945,14.738-6.021,27.559,1.781,33.062
					c7.805,5.497,15.365-9.99,15.365-9.99c4.455-33.797,24.982-32.945,36.424-27.587c11.828,5.542,1.695,41.997,1.695,41.997
					l0.809,13.655c0,0,18.051-22.301,17.979-29.602c-3.729-2.004-4.141-8.712,3.223-5.854c3.787-3.905,13.723-12.521-4.465-72.618
					l3.311-0.934c20.957,51.293,51.457,64.793,40.443,79.192c29.539,27.894,55.338-29.774,55.338-29.774l0.59,6.854
					c-13.486,16.314-24.164,46.521-61.074,29.462c-9.963,6.842-31.902-2.246-31.902-2.246l-24.557,38.592c0,0-1.695,34-3.59,48.395
					c-1.895,14.396-17.883,34.433-29.967,30.586c-12.084-3.85-8.166-20.532-5.592-29.929c2.572-9.399,33.004-53.149,33.004-53.149
					l1.059-20.275c0,0-6.875,3.568-14.928,1.627c-8.057-1.943-15.586-11.143-15.586-11.143s-6.441,11.601-18.588,8.176
					c-12.146-3.422-8.547-20.18-7.85-28.648c0.705-8.602,7.494-24.178-2.721-27.302c-19.289-5.903-31.998,47.399-31.998,47.399
					l-4.111-1.871c0.961-4.457,0.947-5.937,0.947-5.937c-24.256,16.62-32.365,0.515-32.365,0.515
					c-14.223,25.482-55.809,30.624-37.645-25.136c-12.42,5.026-24.508-4.901-24.508-4.901
					c-7.227,49.677-41.578,40.662-47.027,35.302c-14.568,9.235-28.381-2.214-28.381-2.214s-4.412,16.396-12.654,20.825
					c-11.281,6.063-17.326-1.94-17.326-1.94c-31.852,16.495-32.283-2.229-28.883-26.51c2.334-16.656,10.764-33.995-2.094-38.873
					c-5.4-2.049-21.32,7.691-22.934,20.165c-7.678,59.332-33.67,28.961-33.67,28.961c-8.783,19.972-24.176,17.064-30.223,3.772
					c-25.291,49.134-39.182-0.034-39.182-0.034l-15.861,10.811l-3.047-5.476C394.876,149.719,406.152,146.417,414.474,133.292z
					 M438.48,97.531c-10.73-6.43-19.244,30.118-19.244,30.118S446.201,102.156,438.48,97.531z M483.298,109.57
					c0,0-6.643-9.663-16.242-4c-13.881,8.188-15.786,38.111-4.057,43.342s18.033-17.3,18.033-17.3S480.964,125.736,483.298,109.57z
					 M597.763,113.485c0,0-3.275-4.915-9.039-3.928c-5.764,0.981-16.041,10.997-16.607,24.729c-0.572,13.73,1.545,19.7,5.066,20.666
					C580.71,155.916,596.47,160.121,597.763,113.485z M640.07,91.189c-13.209-8.688-9.541,40.745-9.541,40.745
					S651.564,98.749,640.07,91.189z M868.896,112.965c0,0-6.68-3.764-13.541-2.211c-6.855,1.552-17.104,13.567-15.783,22.659
					c1.828,12.619,16.857,18.802,24.832,12.738C868.476,139.214,871.783,123.999,868.896,112.965z M864.347,184.089
					c0,0-45.746,44.763-20.945,61.718C864.423,260.178,864.347,184.089,864.347,184.089z M901.283,86.959
					c5.078,42.937-1.451,44.305-1.451,44.305C944.966,153.07,928.923,112.521,901.283,86.959z M836.753,247.397
					c0,0,0.324,7.121,9.611,3.539C839.404,250.231,839.181,248.485,836.753,247.397z"/>
			</g>
			<path fill="#F4E5CF" d="M734.429,59.217c0,0,1.797,6.175,2.643,6.303c0.842,0.129,7.396-6.076,7.396-6.076l-0.32-2.64
				c0,0-8.393,0.313-9.656,1.991"/>
			<path fill="#F4E5CF" d="M994.98,93.785c0,0,0.199,3.243,2.494,4.354c2.293,1.107,4.902-4.808,4.902-4.808s0.572-2.822-1.51-3.436
				C998.787,89.281,995.617,92.074,994.98,93.785z"/>
		</g>
		<g>
			<path fill="#F4E5CF" d="M304.292,139.738l-3.334-3.335c0,0,15.417-75.075-8.054-106.927l12.895,7.611
				C305.799,37.088,318.511,51.683,304.292,139.738z"/>
			<path fill="#F4E5CF" d="M310.97,75.642c0,0,11.979-23.019,32.468-19.511c20.489,3.509,12.7,32.244,12.7,32.244
				s8.324-12.342,21.527-9.138c32.491,7.89-14.42,147.653,19.544,192.951l-6.206,0.946
				c-36.559-41.512,11.991-181.434-14.588-189.053c-13.488-3.868-22.269,13.424-26.081,51.924l-5.866-1.296
				c0,0,17.605-69.96-0.555-74.597c-17.496-4.465-34.929,44.964-34.929,44.964 M320.611,70.729c0,0-12.784,13.021-10.485,16.74
				C312.422,91.184,318.24,74.818,320.611,70.729z"/>
		</g>
	</g>
</g>
<g>
	<g>
		<path fill="#58595B" d="M12.166,117.781l-3.562-3.563c0,0,16.468-80.195-8.604-114.219l13.774,8.13
			C13.774,8.13,27.353,23.721,12.166,117.781z"/>
		<path fill="#58595B" d="M19.299,49.313c0,0,12.795-24.589,34.682-20.841c21.886,3.747,13.566,34.441,13.566,34.441
			s8.894-13.183,22.997-9.76c34.706,8.427-15.404,157.724,20.876,206.111l-6.629,1.011C65.738,215.933,117.6,66.469,89.207,58.329
			c-14.408-4.132-23.787,14.34-27.859,55.466l-6.267-1.386c0,0,18.807-74.729-0.593-79.684c-18.688-4.77-37.311,48.03-37.311,48.03
			 M29.597,44.064c0,0-13.655,13.91-11.2,17.883C20.85,65.914,27.063,48.434,29.597,44.064z"/>
	</g>
	<path fill="#58595B" d="M175.595,130.669c-8.841-31.423,4.974-56.1,17.748-57.247c8.493-0.764,16.509,3.567,16.509,3.567
		l4.269-54.769l5.393,2.399c-15.832,163.403-4.943,175.136,14.873,186.851l-2.33,3.965c-27.906-11.509-27.169-71.479-27.169-71.479
		c-13.168,11.394-26.906-6.234-26.906-6.234c-23.785,24.463-32.452-3.836-32.452-3.836s-5.883,9.173-19.078,10.494
		c-33.117,3.32-10.441-56.275,8.41-55.508c24.549,1,14.992,28.828,14.736,40.018C158.803,155.775,175.595,130.669,175.595,130.669
		 M143.946,99.184c0,0-17.344-18.975-28.432,16.986c-7.625,24.722,10.304,23.365,10.304,23.365s11.339,1.226,18.022-10.655
		c1.083-1.926-1.552-6.387,0.808-14.128C146.787,107.742,146.952,103.12,143.946,99.184z M208.736,88.621
		c0,0-1.17-7.948-12.125-8.313c-10.956-0.362-17.555,17.276-18.196,27.47c-0.767,12.189-1.022,35.254,17.349,33.695
		c11.722-0.994,10.152-8.586,10.152-8.586L208.736,88.621z"/>
	<g>
		<g>
			<path fill="#58595B" d="M406.795,125.802c-0.209-8.949,5.49-46.558,26.382-41.948c17.545,3.867-22.19,49.107-22.19,49.107
				s5.965,46.596,32.159-4.706c1.09-48.997,36.071-35.556,36.14-30.298c5.909,0.894-11.035,30.262,9.333,36.956
				c18.656,6.132,16.844-56.794,16.844-56.794l4.715-0.725c2.475,8.944,0.934,12.847,0.934,12.847s9.184-17.847,25.146-11.108
				c24.947,10.529-7.74,59.466,4.07,69.604c3.01,2.582,15.092,2.287,19.568-8.263c-0.527-32.61,9.932-40.813,19.121-42.587
				c9.191-1.774,11.832,3.588,11.832,3.588s6.863-81.57,4.461-85.428l7.268,0.982c-3.271,32.273-7.037,105.741-7.037,105.741
				c15.387,15.287,21.201,2.565,21.201,2.565s-5.771-52.482,13.963-47.975c25.248,5.768-2.801,52.688-2.801,52.688
				c41.582,9.108,34.762-37.05,31.789-43.114l3.246-1.452c14.469,18.507,31.977,9.812,40.773,1.644l2.799,4.311
				c-12.184,16.289-17.589,43.541-4.871,47.839c14.744,4.982,22.563-8.467,26.387-21.7c2.133-7.384,5.031-23.699,4.623-41.906
				l4.195-1.084c0.301,27.491-8.473,50.9,4.525,53.712c23.9,5.168,28.434-20.085,27.043-48.948l5.631,0.854
				c0,0,1.35,5.065-0.389,16.519c28.652-37.111,36.363-2.227,34.301,8.102c-2.945,14.738-6.021,27.559,1.781,33.062
				c7.805,5.497,15.365-9.99,15.365-9.99c4.455-33.797,24.982-32.945,36.424-27.587c11.828,5.542,1.695,41.997,1.695,41.997
				l0.809,13.655c0,0,18.051-22.301,17.979-29.602c-3.729-2.004-4.141-8.712,3.223-5.854c3.787-3.905,13.723-12.521-4.465-72.618
				l3.311-0.934c20.957,51.293,51.457,64.793,40.443,79.192c29.539,27.894,55.338-29.774,55.338-29.774l0.59,6.854
				c-13.486,16.314-24.164,46.521-61.074,29.462c-9.963,6.842-31.902-2.246-31.902-2.246l-24.557,38.592c0,0-1.695,34-3.59,48.395
				c-1.895,14.396-17.883,34.433-29.967,30.586c-12.084-3.85-8.166-20.532-5.592-29.929c2.572-9.399,33.004-53.149,33.004-53.149
				l1.059-20.275c0,0-6.875,3.568-14.928,1.627c-8.057-1.943-15.586-11.143-15.586-11.143s-6.441,11.601-18.588,8.176
				c-12.146-3.422-8.547-20.18-7.85-28.648c0.705-8.602,7.494-24.178-2.721-27.302c-19.289-5.903-31.998,47.399-31.998,47.399
				l-4.111-1.871c0.961-4.457,0.947-5.937,0.947-5.937c-24.256,16.62-32.365,0.515-32.365,0.515
				c-14.223,25.482-55.809,30.624-37.645-25.136c-12.42,5.026-24.508-4.901-24.508-4.901c-7.227,49.677-41.578,40.662-47.027,35.302
				c-14.568,9.235-28.381-2.214-28.381-2.214s-4.412,16.396-12.654,20.825c-11.281,6.063-17.326-1.94-17.326-1.94
				c-31.852,16.495-32.283-2.229-28.883-26.51c2.334-16.656,10.764-33.995-2.094-38.873c-5.4-2.049-21.32,7.691-22.934,20.165
				c-7.678,59.332-33.67,28.961-33.67,28.961c-8.783,19.972-24.175,17.064-30.222,3.772c-25.292,49.134-39.183-0.034-39.183-0.034
				l-15.861,10.811l-3.046-5.476C387.197,142.229,398.472,138.927,406.795,125.802z M430.8,90.041
				c-10.73-6.43-19.244,30.118-19.244,30.118S438.521,94.666,430.8,90.041z M475.619,102.08c0,0-6.643-9.663-16.242-4
				c-13.881,8.188-15.787,38.111-4.057,43.342s18.033-17.3,18.033-17.3S473.285,118.246,475.619,102.08z M590.083,105.995
				c0,0-3.275-4.915-9.039-3.928c-5.764,0.981-16.041,10.997-16.607,24.729c-0.572,13.73,1.545,19.7,5.066,20.666
				C573.031,148.426,588.791,152.631,590.083,105.995z M632.39,83.699c-13.209-8.688-9.541,40.745-9.541,40.745
				S643.884,91.259,632.39,83.699z M861.216,105.475c0,0-6.68-3.764-13.541-2.211c-6.855,1.552-17.104,13.567-15.783,22.659
				c1.828,12.619,16.857,18.802,24.832,12.738C860.796,131.724,864.103,116.509,861.216,105.475z M856.667,176.599
				c0,0-45.746,44.763-20.945,61.718C856.744,252.688,856.667,176.599,856.667,176.599z M893.603,79.469
				c5.078,42.937-1.451,44.305-1.451,44.305C937.287,145.58,921.244,105.031,893.603,79.469z M829.074,239.907
				c0,0,0.324,7.121,9.611,3.539C831.724,242.741,831.501,240.995,829.074,239.907z"/>
		</g>
		<path fill="#58595B" d="M726.75,51.727c0,0,1.797,6.175,2.643,6.303c0.842,0.129,7.396-6.076,7.396-6.076l-0.32-2.64
			c0,0-8.393,0.313-9.656,1.991"/>
		<path fill="#58595B" d="M987.3,86.295c0,0,0.199,3.243,2.494,4.354c2.293,1.107,4.902-4.808,4.902-4.808s0.572-2.822-1.51-3.436
			C991.107,81.791,987.937,84.584,987.3,86.295z"/>
	</g>
	<g>
		<path fill="#58595B" d="M296.613,132.248l-3.334-3.335c0,0,15.417-75.075-8.054-106.927l12.895,7.611
			C298.119,29.598,310.831,44.192,296.613,132.248z"/>
		<path fill="#58595B" d="M303.291,68.151c0,0,11.979-23.019,32.468-19.511c20.489,3.509,12.7,32.244,12.7,32.244
			s8.325-12.342,21.528-9.138c32.491,7.89-14.421,147.653,19.543,192.951l-6.206,0.946
			c-36.559-41.512,11.991-181.434-14.588-189.053c-13.489-3.868-22.269,13.424-26.081,51.924l-5.867-1.296
			c0,0,17.606-69.96-0.555-74.597c-17.495-4.465-34.929,44.964-34.929,44.964 M312.931,63.238c0,0-12.784,13.021-10.485,16.74
			C304.743,83.693,310.56,67.328,312.931,63.238z"/>
	</g>
</g>
</svg>
