<?xml version="1.0" encoding="utf-8"?>
<!-- Generator: Adobe Illustrator 16.0.0, SVG Export Plug-In . SVG Version: 6.00 Build 0)  -->
<!DOCTYPE svg PUBLIC "-//W3C//DTD SVG 1.1//EN" "http://www.w3.org/Graphics/SVG/1.1/DTD/svg11.dtd">
<svg version="1.1" id="Layer_1" xmlns="http://www.w3.org/2000/svg" xmlns:xlink="http://www.w3.org/1999/xlink" x="0px" y="0px"
	 width="371.582px" height="115.888px" viewBox="0 0 371.582 115.888" enable-background="new 0 0 371.582 115.888"
	 xml:space="preserve">
<rect x="-155.443" y="-151.688" opacity="0.3" fill="#F9ED32" width="792" height="49.065"/>
<g>
	<g>
		<path fill="#6D6E71" d="M20.792,39.651c0,0,6.733,5.497,13.952,2.729c0.434,3.494-2.945,14.905-5.177,19.332
			c3.688,3.542,3.946,3.79,3.946,3.79s7.339-27.646,13.815-21.451c4.889,4.679,0.017,12.698-2.077,17.213
			c4.079,2.071,1.215,0.73,4.079,2.071c5.71-17.223,10.202-17.268,12.522-16.114c10.915,5.423-13.488,43.382-6.333,68.667
			c3.825-5.187-1.15,1.561,4.068-5.514c-1.867-10.163,2.563-29.903,6.039-39.092c13.856-36.639-10.138-29.729-12.901-25.371
			c1.878-2.296-1.799-15.722-13.97-4.397c1.604-5.391,0.079-0.539,2.502-8.053c-3.324-0.338,0,0-3.324-0.338
			c-3.559,6.509-5.835,7.773-16.107,4.621C20.792,39.651,21.828,37.744,20.792,39.651z"/>
		<path fill="#6D6E71" d="M76.432,39.641c1.091-5.743,18.252-9.499,18.075,5.828c-0.115,9.912-0.186,16.054-0.127,20.337
			c-5.562-0.565-9.351,3.097-16.916-0.195c-8.648-3.764-3.632-24.938,12.033-16.256c2.001-6.275-3.278-15.978-11.329-7.551
			C76.71,39.938,77.891,41.508,76.432,39.641z M89.514,60.196c3.11-13.346-12.539-10.515-10.751-1.758
			C79.924,64.131,86.954,59.958,89.514,60.196z"/>
		<path fill="#6D6E71" d="M132.355,16.131c2.912,2.611,0,0,2.912,2.611c-15.705,17.721-8.718,31.095-9.913,38.334
			c-3.286,13.674-32.241,15.839-26.963-3.51c5.216-19.118,21.694-9.389,21.694-9.389C118.299,34.698,127.962,18.979,132.355,16.131z
			 M121.614,51.723c-1.931-7.475-17.349-11.876-18.265,6.085C102.788,68.845,123.878,60.493,121.614,51.723z"/>
		<path fill="#6D6E71" d="M137.925,11.582c0.059-2.292,1.472-3.216,3.988-1.521c3.344,1.044,0.647,4.527-1.67,3.025
			C137.925,11.582,140.243,13.086,137.925,11.582z"/>
		<path fill="#6D6E71" d="M152.612,3.241l-1.39,1.536c0,0,0.861,1.3,2.262,2.039c1.403,0.74,2.994-0.893,2.612-2.27
			C155.715,3.17,152.612,3.241,152.612,3.241z"/>
		<path fill="#6D6E71" d="M164.187,1.611l0.367,1.448c0,0,1.126,0.003,2.131-0.545c1.005-0.547,0.662-2.156-0.319-2.478
			C165.384-0.284,164.187,1.611,164.187,1.611z"/>
		<path fill="#6D6E71" d="M6.667,22.74l-1.845,0.422c0,0-0.011,1.42,0.681,2.705c0.69,1.285,2.738,0.896,3.15-0.331
			C9.068,24.307,6.667,22.74,6.667,22.74z"/>
		<path fill="#6D6E71" d="M0,13.526l0.425,1.335c0,0,1.067,0.062,1.991-0.379c0.924-0.443,0.511-1.92-0.436-2.263
			C1.033,11.876,0,13.526,0,13.526z"/>
		<path fill="#6D6E71" d="M14.204,35.203c-1.967-0.437-2.688-1.655-1.1-3.259c1.068-2.333,3.924,0.287,2.511,1.773
			C14.204,35.203,15.615,33.718,14.204,35.203z"/>
	</g>
	<path fill="#6D6E71" d="M311.307,61.331c0,0-7.268,7.332-9.668,3.511c-3.568-5.68,9.105-17.007-0.354-15.665
		c-7.145,1.011-8.073,13.124-13.651,15.359c0,0-4.181,1.883-6.955-2.829c-1.746-2.963-20.176,14.985-7.463-12.721
		c0.672-1.465-4.525-0.052-4.525-0.052s-5.938,22.796-20.088,13.271c0,0-6.778,5.349-9.967-1.127
		c-1.267,1.416-3.126,5.981-8.674,1.112c0,0-8.521,3.723-10.93,0.886c-2.729-3.213,9.261-18.162-4.874-13.406
		c-4.347,1.463-4.561,21.728-16.35,11.474c-9.48,6.002-12.988-1.274-12.181-2.741c-10.322,8.945-13.821,2.495-13.821,2.495
		s-8.558,5.464-10.531,2.041c-1.21-2.1,5.914-14.415-0.607-16.486c-6.522-2.071-10.287,14.725-10.287,14.725l-4.126-0.048
		c0,0,8.611-15.181,3.757-18.103c-5.707-3.438-10.764,10.209-10.764,10.209l-2.111-1.157c0,0,2.108-2.076,2.897-11.198
		c3.18-1.65,3.18-1.65,3.18-1.65s-0.247,1.073-0.924,5.33c1.432-7.437,12.44-7.492,11.86,0.868
		c2.89-4.961,18.842-1.821,11.042,14.324c-1.039,2.15,5.919-0.884,5.919-0.884c-2.867-2.212-0.082-18.403,9.587-15.206
		c8.458,2.798-1.614,13.651-4.34,14.915c0.463,1.9,7.55-0.637,9.457-7.067c1.906-6.432,9.576-9.135,13.204-7.215
		c5.97,3.16,4.537,5.919,1.57,15.475c-0.914,2.948,7.375,3.67,8.737-14.71c1.875-0.608,2.168-1.098,2.168-1.098l1.26,2.824
		c0,0,20.936-8.835,9.342,12.168c-1.339,2.426,6.172,0.518,6.172,0.518s-1.294-21.509,13.216-12.297
		c3.086-5.865,8.155-21.822,8.155-21.822l2.729,0.031c0,0-9.881,31.269-10.319,31.826c-0.437,0.557,1.177,4.267,5.296,2.259
		c0,0,0.368-16.718,8.559-14.516c11.163,3.003-1.486,14.43-4.627,15.825c1.271,1.911,15.318,1.547,13.556-13.754
		c0.766-1.046,1.098-1.78,1.098-1.78s0.438,1.119,9.712,0.453c0.389,0.604,0.069,1.697,0.709,2.302
		c-1.217,2.652-5.453,12.904-4.139,13.126c8.455,1.427,10.663-15.861,10.663-15.861l2.928,1.44c0,0-5.644,13.421-1.946,13.818
		c5.129,0.551,9.142-6.288,8.657-14.302c2.894-1.794,2.894-1.794,2.894-1.794l0.255,2.952c0,0,22.654-8.298,9.169,14.689
		c-1.473,2.509,5.782-2.993,5.782-2.993s1.705-16.912,13.296-12.844s-0.119,16.649-0.119,16.649l5.199-2.469
		c0,0,0.331-3.972,3.998-4.139c2.124-0.097,3.415-9.586,1.374-13.053c1.079-0.408,1.591-0.965,1.591-0.965
		s12.918,7.732,8.112,19.204c20.052,15.284,20.815-9.538,22.746-16.318c1.157,0.847,1.706,1.566,1.706,1.566
		s-0.655,35.476-26.498,17.538c-3.545-2.461-5.08,4.042-10.612-2.019c-3.324-0.652-8.026,1.585-8.66,3.874
		c-1.05,3.781-4.185,31.13-14.311,24.55c-10.126-6.582,12.617-27.24,12.617-27.24S311.221,68.743,311.307,61.331z M179.924,45.726
		c-5.889-2.582-6.662,11.902-6.662,11.902C177.125,55.979,184.618,47.783,179.924,45.726z M240.618,50.678
		c0,0-7.38-6.432-9.084,2.904C229.961,62.19,238.012,61.818,240.618,50.678z M255.1,47.822c-3.216-1.406-5.124,10.551-5.124,10.551
		C255.805,57.388,258.317,49.23,255.1,47.822z M315.001,61.936c5.121,4.381,11.104-9.883,11.104-9.883
		C319.648,42.068,310.172,57.806,315.001,61.936z M337.535,61.535c11.368,1.638,3.147-12.707,0.348-13.326
		c0.228,5.393-2.136,8.896-2.136,8.896C338.928,58.319,338.287,59.306,337.535,61.535z M197.108,57.903c0,0,3.166-6.181,3.147-7.903
		c-0.019-1.722-5.64-7.77-10.977,1.63C183.412,61.961,194.61,59.631,197.108,57.903z M319.676,67.681c0,0-13.65,16.513-9.625,19.826
		C315.15,91.709,319.676,67.681,319.676,67.681z M285.728,36.672l-1.198,1.322c0,0,0.741,1.121,1.949,1.758s2.579-0.769,2.25-1.954
		C288.399,36.612,285.728,36.672,285.728,36.672z M367.63,40.961l1.959,1.354c0,0,1.155-1.512,1.871-2.209
		c0.713-0.697-1.935-1.117-2.632-0.803C368.13,39.618,367.63,40.961,367.63,40.961z"/>
</g>
<text transform="matrix(1 0 0 1 231.9321 -272.8584)" font-family="'SuperFrench'" font-size="48">TRAVEL</text>
</svg>
