<?xml version="1.0" encoding="utf-8"?>
<!-- Generator: Adobe Illustrator 16.0.0, SVG Export Plug-In . SVG Version: 6.00 Build 0)  -->
<!DOCTYPE svg PUBLIC "-//W3C//DTD SVG 1.1//EN" "http://www.w3.org/Graphics/SVG/1.1/DTD/svg11.dtd">
<svg version="1.1" id="Layer_1" xmlns="http://www.w3.org/2000/svg" xmlns:xlink="http://www.w3.org/1999/xlink" x="0px" y="0px"
	 width="54.245px" height="50.366px" viewBox="0 0 54.245 50.366" enable-background="new 0 0 54.245 50.366" xml:space="preserve">
<g>
	<polygon fill="#741112" points="10.278,48.318 7.043,25.525 0,25.525 11.991,14.878 11.924,4 19.224,4.095 19.224,8.053 27.408,0 
		54.245,24.022 49.298,24.022 47.013,50.366 10.658,50.366 	"/>
</g>
<polygon fill="#FFFFFF" points="21.888,28.254 23.078,39.207 31.929,39.207 33.119,28.254 "/>
<rect x="228.44" y="2.212" fill-rule="evenodd" clip-rule="evenodd" fill="#741112" width="207.021" height="177.018"/>
<g>
	<path fill-rule="evenodd" clip-rule="evenodd" fill="#741112" d="M66.245,46.411c0-9.15,0-18.299,0-27.45
		c0.029-0.106,0.064-0.211,0.087-0.318c0.285-1.42,1.037-2.504,2.355-3.132c0.492-0.233,1.043-0.34,1.568-0.504
		c9.111,0,18.225,0,27.336,0c0.081,0.021,0.161,0.045,0.242,0.062c1.766,0.345,2.987,1.32,3.55,3.058
		c0.088,0.273,0.146,0.557,0.219,0.835c0,9.15,0,18.299,0,27.45c-0.033,0.125-0.069,0.248-0.098,0.375
		c-0.373,1.686-1.368,2.814-3.017,3.355c-0.292,0.096-0.597,0.148-0.896,0.225c-9.111,0-18.225,0-27.336,0
		c-0.081-0.021-0.161-0.045-0.242-0.063c-1.869-0.373-3.118-1.426-3.613-3.301C66.349,46.806,66.297,46.608,66.245,46.411z
		 M70.18,29.973c-0.007,0.143-0.018,0.272-0.018,0.401c-0.001,2.316-0.001,4.633-0.001,6.947c0,2.465,0.005,4.932-0.003,7.398
		c-0.003,1.01,0.699,1.592,1.577,1.592c8.104-0.016,16.209-0.008,24.313-0.01c0.99,0,1.552-0.564,1.552-1.557
		c0.002-4.82,0.001-9.641,0.001-14.458c0-0.1,0-0.201,0-0.311c-1.048,0-2.06,0-3.101,0c0.031,0.132,0.056,0.239,0.085,0.347
		c0.534,1.98,0.467,3.954-0.163,5.893c-0.589,1.814-1.62,3.355-3.058,4.623c-1.366,1.205-2.926,2.027-4.693,2.457
		c-2.367,0.576-4.686,0.414-6.946-0.484c-1.207-0.479-2.29-1.166-3.256-2.039c-0.866-0.783-1.587-1.682-2.159-2.693
		c-0.495-0.881-0.854-1.816-1.074-2.807c-0.31-1.396-0.339-2.794-0.077-4.199c0.067-0.363,0.157-0.722,0.242-1.1
		C72.307,29.973,71.256,29.973,70.18,29.973z M83.949,39.487c0.896,0.012,1.763-0.143,2.592-0.475
		c2.158-0.863,3.641-2.371,4.262-4.633c0.631-2.291,0.15-4.393-1.401-6.167c-1.83-2.096-4.203-2.846-6.923-2.323
		c-1.918,0.367-3.435,1.409-4.519,3.056c-1.652,2.506-1.446,5.727,0.506,8.022C79.891,38.642,81.752,39.456,83.949,39.487z
		 M93.979,25.927c0.63,0,1.261,0.003,1.892-0.001c1.08-0.009,1.718-0.65,1.721-1.728c0.002-1.177,0.003-2.354,0-3.53
		c-0.003-1.051-0.644-1.727-1.688-1.742c-1.262-0.018-2.523-0.017-3.785-0.001c-1.057,0.013-1.697,0.675-1.701,1.725
		c-0.004,1.186-0.004,2.373,0,3.559c0.004,1.066,0.63,1.701,1.697,1.716C92.735,25.935,93.356,25.928,93.979,25.927z"/>
</g>
</svg>
