<?xml version="1.0" encoding="utf-8"?>
<!-- Generator: Adobe Illustrator 16.0.0, SVG Export Plug-In . SVG Version: 6.00 Build 0)  -->
<!DOCTYPE svg PUBLIC "-//W3C//DTD SVG 1.1//EN" "http://www.w3.org/Graphics/SVG/1.1/DTD/svg11.dtd">
<svg version="1.1" id="Layer_1" xmlns="http://www.w3.org/2000/svg" xmlns:xlink="http://www.w3.org/1999/xlink" x="0px" y="0px"
	 width="35.357px" height="35.359px" viewBox="0 0 35.357 35.359" enable-background="new 0 0 35.357 35.359" xml:space="preserve">
<g>
	<polygon fill="#741112" points="-95.506,39.589 -98.04,14.698 -103.555,14.698 -94.165,3.072 -94.165,-5.125 -88.5,-8.703 
		-88.5,-4.38 -82.091,-13.174 -61.075,13.059 -64.95,13.059 -66.739,41.826 -95.208,41.826 	"/>
	<path fill="#FFFFFF" d="M-86.414,17.679l0.447,5.701c0,0,3.428,0.074,3.428,0s0-5.701,0-5.701H-86.414z"/>
	<polygon fill="#FFFFFF" points="-85.892,24.275 -85.482,29.64 -82.539,29.64 -82.539,24.275 	"/>
	<polygon fill="#FFFFFF" points="-78.142,24.275 -78.551,29.64 -81.495,29.64 -81.495,24.275 	"/>
	<path fill="#FFFFFF" d="M-77.62,17.679l-0.447,5.701c0,0-3.428,0.074-3.428,0s0-5.701,0-5.701H-77.62z"/>
</g>
<rect x="162.195" y="-12.795" fill-rule="evenodd" clip-rule="evenodd" fill="#741112" width="207.021" height="177.018"/>
<g>
	<path fill-rule="evenodd" clip-rule="evenodd" fill="#741112" d="M0,31.404c0-9.15,0-18.299,0-27.45
		c0.029-0.106,0.064-0.211,0.087-0.318c0.285-1.42,1.037-2.504,2.355-3.132C2.935,0.271,3.485,0.165,4.011,0
		c9.111,0,18.225,0,27.336,0c0.081,0.021,0.161,0.045,0.242,0.062c1.766,0.345,2.987,1.32,3.55,3.058
		c0.088,0.273,0.146,0.557,0.219,0.835c0,9.15,0,18.299,0,27.45c-0.033,0.125-0.069,0.248-0.098,0.375
		c-0.373,1.686-1.368,2.814-3.017,3.355c-0.292,0.096-0.597,0.148-0.896,0.225c-9.111,0-18.225,0-27.336,0
		c-0.081-0.021-0.161-0.045-0.242-0.063c-1.869-0.373-3.118-1.426-3.613-3.301C0.104,31.798,0.052,31.601,0,31.404z M3.935,14.966
		c-0.007,0.143-0.018,0.272-0.018,0.401C3.916,17.683,3.916,20,3.916,22.314c0,2.465,0.005,4.932-0.003,7.398
		c-0.003,1.01,0.699,1.592,1.577,1.592c8.104-0.016,16.209-0.008,24.313-0.01c0.99,0,1.552-0.564,1.552-1.557
		c0.002-4.82,0.001-9.641,0.001-14.458c0-0.1,0-0.201,0-0.311c-1.048,0-2.06,0-3.101,0c0.031,0.132,0.056,0.239,0.085,0.347
		c0.534,1.98,0.467,3.954-0.163,5.893c-0.589,1.814-1.62,3.355-3.058,4.623c-1.366,1.205-2.926,2.027-4.693,2.457
		c-2.367,0.576-4.686,0.414-6.946-0.484c-1.207-0.479-2.29-1.166-3.256-2.039c-0.866-0.783-1.587-1.682-2.159-2.693
		c-0.495-0.881-0.854-1.816-1.074-2.807c-0.31-1.396-0.339-2.794-0.077-4.199c0.067-0.363,0.157-0.722,0.242-1.1
		C6.062,14.966,5.011,14.966,3.935,14.966z M17.704,24.48c0.896,0.012,1.763-0.143,2.592-0.475c2.158-0.863,3.641-2.371,4.262-4.633
		c0.631-2.291,0.15-4.393-1.401-6.167c-1.83-2.096-4.203-2.846-6.923-2.323c-1.918,0.367-3.435,1.409-4.519,3.056
		c-1.652,2.506-1.446,5.727,0.506,8.022C13.646,23.634,15.507,24.449,17.704,24.48z M27.733,10.92c0.63,0,1.261,0.003,1.892-0.001
		c1.08-0.009,1.718-0.65,1.721-1.728c0.002-1.177,0.003-2.354,0-3.53c-0.003-1.051-0.644-1.727-1.688-1.742
		c-1.262-0.018-2.523-0.017-3.785-0.001c-1.057,0.013-1.697,0.675-1.701,1.725c-0.004,1.186-0.004,2.373,0,3.559
		c0.004,1.066,0.63,1.701,1.697,1.716C26.49,10.927,27.111,10.92,27.733,10.92z"/>
</g>
</svg>
